<svg width="213" height="48" viewBox="0 0 213 48" fill="none" xmlns="http://www.w3.org/2000/svg">
<path d="M64.76 34L60.672 26.58H59.524V34H54.736V14.344H62.772C64.3213 14.344 65.6373 14.6147 66.72 15.156C67.8213 15.6973 68.6427 16.444 69.184 17.396C69.7253 18.3293 69.996 19.3747 69.996 20.532C69.996 21.8387 69.6227 23.0053 68.876 24.032C68.148 25.0587 67.0653 25.7867 65.628 26.216L70.164 34H64.76ZM59.524 23.192H62.492C63.3693 23.192 64.0227 22.9773 64.452 22.548C64.9 22.1187 65.124 21.512 65.124 20.728C65.124 19.9813 64.9 19.3933 64.452 18.964C64.0227 18.5347 63.3693 18.32 62.492 18.32H59.524V23.192ZM74.5696 16.752C73.7296 16.752 73.039 16.5093 72.4976 16.024C71.975 15.52 71.7136 14.904 71.7136 14.176C71.7136 13.4293 71.975 12.8133 72.4976 12.328C73.039 11.824 73.7296 11.572 74.5696 11.572C75.391 11.572 76.063 11.824 76.5856 12.328C77.127 12.8133 77.3976 13.4293 77.3976 14.176C77.3976 14.904 77.127 15.52 76.5856 16.024C76.063 16.5093 75.391 16.752 74.5696 16.752ZM76.9496 18.376V34H72.1616V18.376H76.9496ZM78.6274 26.16C78.6274 24.5547 78.9261 23.1453 79.5234 21.932C80.1394 20.7187 80.9701 19.7853 82.0154 19.132C83.0608 18.4787 84.2274 18.152 85.5154 18.152C86.5421 18.152 87.4754 18.3667 88.3154 18.796C89.1741 19.2253 89.8461 19.804 90.3314 20.532V13.28H95.1194V34H90.3314V31.76C89.8834 32.5067 89.2394 33.104 88.3994 33.552C87.5781 34 86.6168 34.224 85.5154 34.224C84.2274 34.224 83.0608 33.8973 82.0154 33.244C80.9701 32.572 80.1394 31.6293 79.5234 30.416C78.9261 29.184 78.6274 27.7653 78.6274 26.16ZM90.3314 26.188C90.3314 24.9933 89.9954 24.0507 89.3234 23.36C88.6701 22.6693 87.8674 22.324 86.9154 22.324C85.9634 22.324 85.1514 22.6693 84.4794 23.36C83.8261 24.032 83.4994 24.9653 83.4994 26.16C83.4994 27.3547 83.8261 28.3067 84.4794 29.016C85.1514 29.7067 85.9634 30.052 86.9154 30.052C87.8674 30.052 88.6701 29.7067 89.3234 29.016C89.9954 28.3253 90.3314 27.3827 90.3314 26.188ZM112.471 25.936C112.471 26.384 112.443 26.8507 112.387 27.336H101.551C101.626 28.3067 101.934 29.0533 102.475 29.576C103.035 30.08 103.717 30.332 104.519 30.332C105.714 30.332 106.545 29.828 107.011 28.82H112.107C111.846 29.8467 111.37 30.7707 110.679 31.592C110.007 32.4133 109.158 33.0573 108.131 33.524C107.105 33.9907 105.957 34.224 104.687 34.224C103.157 34.224 101.794 33.8973 100.599 33.244C99.4047 32.5907 98.4713 31.6573 97.7993 30.444C97.1273 29.2307 96.7913 27.812 96.7913 26.188C96.7913 24.564 97.118 23.1453 97.7713 21.932C98.4433 20.7187 99.3767 19.7853 100.571 19.132C101.766 18.4787 103.138 18.152 104.687 18.152C106.199 18.152 107.543 18.4693 108.719 19.104C109.895 19.7387 110.81 20.644 111.463 21.82C112.135 22.996 112.471 24.368 112.471 25.936ZM107.571 24.676C107.571 23.8547 107.291 23.2013 106.731 22.716C106.171 22.2307 105.471 21.988 104.631 21.988C103.829 21.988 103.147 22.2213 102.587 22.688C102.046 23.1547 101.71 23.8173 101.579 24.676H107.571ZM121.269 34.196C119.832 34.196 118.544 33.9627 117.405 33.496C116.267 33.0293 115.352 32.3387 114.661 31.424C113.989 30.5093 113.635 29.408 113.597 28.12H118.693C118.768 28.848 119.02 29.408 119.449 29.8C119.879 30.1733 120.439 30.36 121.129 30.36C121.839 30.36 122.399 30.2013 122.809 29.884C123.22 29.548 123.425 29.0907 123.425 28.512C123.425 28.0267 123.257 27.6253 122.921 27.308C122.604 26.9907 122.203 26.7293 121.717 26.524C121.251 26.3187 120.579 26.0853 119.701 25.824C118.432 25.432 117.396 25.04 116.593 24.648C115.791 24.256 115.1 23.6773 114.521 22.912C113.943 22.1467 113.653 21.148 113.653 19.916C113.653 18.0867 114.316 16.6587 115.641 15.632C116.967 14.5867 118.693 14.064 120.821 14.064C122.987 14.064 124.732 14.5867 126.057 15.632C127.383 16.6587 128.092 18.096 128.185 19.944H123.005C122.968 19.3093 122.735 18.8147 122.305 18.46C121.876 18.0867 121.325 17.9 120.653 17.9C120.075 17.9 119.608 18.0587 119.253 18.376C118.899 18.6747 118.721 19.1133 118.721 19.692C118.721 20.3267 119.02 20.8213 119.617 21.176C120.215 21.5307 121.148 21.9133 122.417 22.324C123.687 22.7533 124.713 23.164 125.497 23.556C126.3 23.948 126.991 24.5173 127.569 25.264C128.148 26.0107 128.437 26.972 128.437 28.148C128.437 29.268 128.148 30.2853 127.569 31.2C127.009 32.1147 126.188 32.8427 125.105 33.384C124.023 33.9253 122.744 34.196 121.269 34.196ZM135.332 20.588C135.798 19.86 136.442 19.272 137.264 18.824C138.085 18.376 139.046 18.152 140.148 18.152C141.436 18.152 142.602 18.4787 143.648 19.132C144.693 19.7853 145.514 20.7187 146.112 21.932C146.728 23.1453 147.036 24.5547 147.036 26.16C147.036 27.7653 146.728 29.184 146.112 30.416C145.514 31.6293 144.693 32.572 143.648 33.244C142.602 33.8973 141.436 34.224 140.148 34.224C139.065 34.224 138.104 34 137.264 33.552C136.442 33.104 135.798 32.5253 135.332 31.816V41.448H130.544V18.376H135.332V20.588ZM142.164 26.16C142.164 24.9653 141.828 24.032 141.156 23.36C140.502 22.6693 139.69 22.324 138.72 22.324C137.768 22.324 136.956 22.6693 136.284 23.36C135.63 24.0507 135.304 24.9933 135.304 26.188C135.304 27.3827 135.63 28.3253 136.284 29.016C136.956 29.7067 137.768 30.052 138.72 30.052C139.672 30.052 140.484 29.7067 141.156 29.016C141.828 28.3067 142.164 27.3547 142.164 26.16ZM147.756 26.16C147.756 24.5547 148.054 23.1453 148.652 21.932C149.268 20.7187 150.098 19.7853 151.144 19.132C152.189 18.4787 153.356 18.152 154.644 18.152C155.745 18.152 156.706 18.376 157.528 18.824C158.368 19.272 159.012 19.86 159.46 20.588V18.376H164.248V34H159.46V31.788C158.993 32.516 158.34 33.104 157.5 33.552C156.678 34 155.717 34.224 154.616 34.224C153.346 34.224 152.189 33.8973 151.144 33.244C150.098 32.572 149.268 31.6293 148.652 30.416C148.054 29.184 147.756 27.7653 147.756 26.16ZM159.46 26.188C159.46 24.9933 159.124 24.0507 158.452 23.36C157.798 22.6693 156.996 22.324 156.044 22.324C155.092 22.324 154.28 22.6693 153.608 23.36C152.954 24.032 152.628 24.9653 152.628 26.16C152.628 27.3547 152.954 28.3067 153.608 29.016C154.28 29.7067 155.092 30.052 156.044 30.052C156.996 30.052 157.798 29.7067 158.452 29.016C159.124 28.3253 159.46 27.3827 159.46 26.188ZM165.92 26.188C165.92 24.564 166.246 23.1453 166.9 21.932C167.572 20.7187 168.496 19.7853 169.672 19.132C170.866 18.4787 172.229 18.152 173.76 18.152C175.72 18.152 177.353 18.6653 178.66 19.692C179.985 20.7187 180.853 22.1653 181.264 24.032H176.168C175.738 22.8373 174.908 22.24 173.676 22.24C172.798 22.24 172.098 22.5853 171.576 23.276C171.053 23.948 170.792 24.9187 170.792 26.188C170.792 27.4573 171.053 28.4373 171.576 29.128C172.098 29.8 172.798 30.136 173.676 30.136C174.908 30.136 175.738 29.5387 176.168 28.344H181.264C180.853 30.1733 179.985 31.6107 178.66 32.656C177.334 33.7013 175.701 34.224 173.76 34.224C172.229 34.224 170.866 33.8973 169.672 33.244C168.496 32.5907 167.572 31.6573 166.9 30.444C166.246 29.2307 165.92 27.812 165.92 26.188ZM197.713 25.936C197.713 26.384 197.685 26.8507 197.629 27.336H186.793C186.867 28.3067 187.175 29.0533 187.717 29.576C188.277 30.08 188.958 30.332 189.761 30.332C190.955 30.332 191.786 29.828 192.253 28.82H197.349C197.087 29.8467 196.611 30.7707 195.921 31.592C195.249 32.4133 194.399 33.0573 193.373 33.524C192.346 33.9907 191.198 34.224 189.929 34.224C188.398 34.224 187.035 33.8973 185.841 33.244C184.646 32.5907 183.713 31.6573 183.041 30.444C182.369 29.2307 182.033 27.812 182.033 26.188C182.033 24.564 182.359 23.1453 183.013 21.932C183.685 20.7187 184.618 19.7853 185.813 19.132C187.007 18.4787 188.379 18.152 189.929 18.152C191.441 18.152 192.785 18.4693 193.961 19.104C195.137 19.7387 196.051 20.644 196.705 21.82C197.377 22.996 197.713 24.368 197.713 25.936ZM192.813 24.676C192.813 23.8547 192.533 23.2013 191.973 22.716C191.413 22.2307 190.713 21.988 189.873 21.988C189.07 21.988 188.389 22.2213 187.829 22.688C187.287 23.1547 186.951 23.8173 186.821 24.676H192.813Z" fill="#111827"/>
<path d="M21.58 4C17.94 4 15 6.90426 15 10.5C15 14.0681 17.94 16.9723 21.552 17C20.656 16.9723 19.956 16.2532 19.956 15.3681C19.956 14.483 20.684 13.7362 21.608 13.7362C25.528 13.7362 34.236 13.7362 38.072 13.7362C40.788 13.7362 43 11.5511 43 8.86812C43 6.1851 40.788 4 38.072 4L21.58 4Z" fill="#5720B7"/>
<path d="M13.58 17C9.94 17 7 19.9043 7 23.5C7 27.0681 9.94 29.9723 13.552 30C12.656 29.9723 11.956 29.2532 11.956 28.3681C11.956 27.483 12.684 26.7362 13.608 26.7362C17.528 26.7362 26.236 26.7362 30.072 26.7362C32.788 26.7362 35 24.5511 35 21.8681C35 19.1851 32.788 17 30.072 17L13.58 17Z" fill="#6927DA"/>
<path d="M8.05 30C4.15 30 1 33.1277 1 37C1 40.8426 4.15 43.9702 8.01998 44C7.05999 43.9702 6.31 43.1958 6.31 42.2425C6.31 41.2894 7.09002 40.4851 8.08003 40.4851C12.28 40.4851 21.61 40.4851 25.72 40.4851C28.63 40.4851 31 38.1319 31 35.2426C31 32.3532 28.63 30 25.72 30L8.05 30Z" fill="#7839EE"/>
</svg>
